<svg width="100" height="106" viewBox="0 0 100 106" fill="none" xmlns="http://www.w3.org/2000/svg">
<g clip-path="url(#clip0_42_211)">
<path d="M99.9707 0H0.0292969C0.0131167 0 0 0.0138664 0 0.0309714V105.685C0 105.702 0.0131167 105.716 0.0292969 105.716H99.9707C99.9869 105.716 100 105.702 100 105.685V0.0309714C100 0.0138664 99.9869 0 99.9707 0Z" fill="white"/>
<path d="M57.8125 46.6635H66.0156H57.8125ZM48.0469 46.6635H56.25H48.0469ZM38.4766 46.6635H46.6797H38.4766ZM28.9062 46.6635H36.9141H28.9062ZM19.1406 46.6635H27.3438H19.1406ZM28.9062 37.1656H36.9141H28.9062ZM38.4766 37.1656H46.6797H38.4766ZM48.0469 37.1656H56.25H48.0469ZM48.0469 27.6677H56.25H48.0469Z" fill="black"/>
<path d="M48.0469 27.6677H56.25M57.8125 46.6635H66.0156H57.8125ZM48.0469 46.6635H56.25H48.0469ZM38.4766 46.6635H46.6797H38.4766ZM28.9062 46.6635H36.9141H28.9062ZM19.1406 46.6635H27.3438H19.1406ZM28.9062 37.1656H36.9141H28.9062ZM38.4766 37.1656H46.6797H38.4766ZM48.0469 37.1656H56.25H48.0469Z" stroke="#066DA5" stroke-width="38"/>
<path d="M92.1875 47.0765C92.1875 47.0765 88.6719 43.5664 81.4453 44.8053C80.6641 38.8175 74.6094 35.3074 74.6094 35.3074C74.6094 35.3074 68.9453 42.534 73.0469 50.5866C71.875 51.206 69.9219 52.0319 66.9922 52.0319H13.2813C12.3047 55.955 12.3047 81.971 39.2578 81.971C58.5938 81.971 73.0469 72.4731 79.8828 55.1291C90.0391 55.955 92.1875 47.0765 92.1875 47.0765Z" fill="#066DA5"/>
</g>
<defs>
<clipPath id="clip0_42_211">
<rect width="100" height="105.716" fill="white"/>
</clipPath>
</defs>
</svg>
