<svg width="100" height="100" viewBox="0 0 100 100" fill="none" xmlns="http://www.w3.org/2000/svg">
<path fill-rule="evenodd" clip-rule="evenodd" d="M59.6 11.4456L82.7039 23.3029C83.3545 22.6904 84.1144 22.1495 84.9765 21.7045C89.7682 19.256 95.8797 20.7098 98.6629 24.9691C101.417 29.2283 99.7819 34.6608 94.9902 37.1348C94.1348 37.5719 93.2363 37.8847 92.3218 38.0793V61.8031C93.2264 61.9982 94.115 62.3089 94.9615 62.7415C99.7819 65.2154 101.417 70.6479 98.6342 74.9072C95.8797 79.1665 89.7395 80.6202 84.9478 78.1718C83.9938 77.6843 83.1649 77.0776 82.4709 76.3848L59.5079 88.1697C59.8361 89.0514 60.0138 89.9945 60.0138 90.9751C60.0138 95.872 55.5377 99.8763 50 99.8763C44.4623 99.8763 39.9862 95.8975 39.9862 90.9751C39.9862 90.1002 40.1277 89.255 40.3913 88.4567L17.2936 76.6026C16.6499 77.2031 15.9005 77.7338 15.0522 78.1718C10.2319 80.6202 4.1203 79.1665 1.36579 74.9072C-1.38871 70.6479 0.246777 65.2154 5.03847 62.7415C5.88568 62.3086 6.77415 61.9976 7.6782 61.8027V38.0793C6.7637 37.8847 5.86524 37.5719 5.00977 37.1348C0.218084 34.6863 -1.4174 29.2283 1.3371 24.9691C4.09161 20.7098 10.2319 19.256 15.0235 21.7045C15.8809 22.1471 16.6372 22.6845 17.2854 23.2929L40.3956 11.4325C40.1292 10.6304 39.9862 9.78082 39.9862 8.90113C39.9862 3.97873 44.4623 0 50 0C55.5377 0 60.0138 3.97873 60.0138 8.90113C60.0138 9.78564 59.8692 10.6397 59.6 11.4456ZM57.1928 15.0989L80.3518 26.9844C79.6359 29.2193 79.8986 31.6974 81.3038 33.8702C82.7135 36.0501 85.0101 37.4951 87.5588 38.0582V61.8117C87.4289 61.8401 87.2997 61.8707 87.1712 61.9036L56.9239 15.3363C57.0152 15.2587 57.1049 15.1795 57.1928 15.0989ZM43.0824 15.3417L12.8357 61.9082C12.7049 61.8745 12.5734 61.8431 12.4412 61.814V38.0582C14.9899 37.4951 17.2865 36.0501 18.6962 33.8702C20.1041 31.6931 20.3651 29.2095 19.644 26.9712L42.7964 15.089C42.8898 15.1749 42.9852 15.2592 43.0824 15.3417ZM52.798 17.4513L83.0378 64.0073C82.361 64.5808 81.7646 65.2491 81.2751 66.0061C80.7885 66.7585 80.4389 67.5484 80.2195 68.3525H19.7811C19.5617 67.5489 19.2119 66.7591 18.7249 66.0061C18.2335 65.254 17.6383 64.5894 16.9649 64.0183L47.2105 17.4535C48.0957 17.6806 49.0316 17.8023 50 17.8023C50.9715 17.8023 51.9103 17.6798 52.798 17.4513ZM57.4055 84.9785L80.4141 73.1701C80.3451 72.9774 80.2834 72.7827 80.2292 72.5863H19.7683C19.7362 72.7017 19.7016 72.8165 19.6644 72.9307L42.7859 84.797C44.6064 83.1175 47.164 82.074 50 82.074C52.9369 82.074 55.5751 83.1931 57.4055 84.9785Z" fill="#E535AB"/>
</svg>
