<svg width="60" height="46" viewBox="0 0 60 46" fill="none" xmlns="http://www.w3.org/2000/svg">
<path d="M6.6 6.35327C3.6375 6.35327 1.21406 8.18268 1.2 10.4234C1.2 10.4234 1.2 10.4269 1.2 10.4305C1.2 10.434 1.2 10.434 1.2 10.4375V34.9432C1.2 37.1874 3.63281 39.0274 6.6 39.0274H53.4C56.3672 39.0274 58.8 37.1874 58.8 34.9432V10.4375C58.8 10.434 58.8 10.434 58.8 10.4305C58.8 10.4269 58.8 10.4234 58.8 10.4234C58.7859 8.18268 56.3625 6.35327 53.4 6.35327H6.6ZM9.72187 8.1685H50.2828L30 18.8613L9.72187 8.1685ZM5.72812 8.27486L30 21.0737L54.2766 8.27486C55.5047 8.55495 56.3906 9.39875 56.4 10.4269C56.3953 10.6184 56.1375 11.0013 55.7625 11.3097C55.3828 11.6217 55.0125 11.8167 55.0125 11.8167L55.0078 11.8238L30 25.2111L4.99218 11.8238L4.9875 11.8167C4.9875 11.8167 4.61718 11.6217 4.2375 11.3097C3.8625 11.0013 3.60468 10.6184 3.6 10.4269C3.60937 9.39875 4.49531 8.55495 5.72812 8.27486ZM3.6 13.2987L3.60937 13.3057L3.61875 13.3093V13.3128L7.2 15.2273V37.2122H6.6C4.93125 37.2122 3.6 36.2053 3.6 34.9432V13.2987ZM56.4 13.2987V34.9432C56.4 36.2053 55.0687 37.2122 53.4 37.2122H52.8V15.2273L56.3812 13.3128V13.3093L56.4 13.2987ZM9.6 16.5108L30 27.4305L50.4 16.5108V37.2122H9.6V16.5108Z" fill="#23559F"/>
</svg>
