<svg width="100" height="100" viewBox="0 0 100 100" fill="none" xmlns="http://www.w3.org/2000/svg">
<path d="M32.2476 77.3042C32.2476 77.3042 27.092 79.5225 35.9167 80.2732C46.6076 81.1755 52.0716 81.0461 63.8531 79.3963C63.8531 79.3963 66.9505 80.8333 71.2764 82.0779C44.8655 90.4529 11.5033 81.5928 32.2476 77.3042Z" fill="#5382A1"/>
<path d="M29.0204 66.3755C29.0204 66.3755 23.2378 69.5425 32.0691 70.2183C43.4894 71.09 52.5084 71.1613 68.1145 68.9379C68.1145 68.9379 70.2731 70.557 73.6673 71.4425C41.7349 78.3511 6.16799 71.9873 29.0204 66.3755Z" fill="#5382A1"/>
<path d="M56.2273 47.8366C62.7349 53.3801 54.5175 58.3685 54.5175 58.3685C54.5175 58.3685 71.0415 52.0572 63.4527 44.1539C56.3651 36.7836 50.9298 33.1215 80.3542 20.4954C80.3542 20.4954 34.1677 29.0301 56.2273 47.8366Z" fill="#E76F00"/>
<path d="M91.1578 85.3877C91.1578 85.3877 94.9731 87.7137 86.956 89.513C71.7113 92.93 23.5058 93.9618 10.1145 89.6492C5.30073 88.0997 14.328 85.9495 17.1676 85.4983C20.1291 85.0232 21.8215 85.1117 21.8215 85.1117C16.468 82.3214 -12.7811 90.5906 6.96436 92.9588C60.8131 99.42 105.125 90.0493 91.1578 85.3877Z" fill="#5382A1"/>
<path d="M34.7269 55.0521C34.7269 55.0521 10.2065 59.3612 26.0436 60.926C32.7305 61.5884 46.0607 61.4385 58.4775 60.6688C68.6251 60.0355 78.8145 58.6889 78.8145 58.6889C78.8145 58.6889 75.2364 59.8226 72.6476 61.1305C47.7476 65.9758 -0.35454 63.7217 13.4935 58.7655C25.2047 54.577 34.7269 55.0521 34.7269 55.0521Z" fill="#5382A1"/>
<path d="M78.7135 73.2435C104.025 63.5117 92.3222 54.1596 84.1535 55.4195C82.1513 55.7279 81.2585 55.995 81.2585 55.995C81.2585 55.995 82.0018 55.1335 83.4215 54.7606C99.5818 50.557 112.01 67.1587 78.2047 73.734C78.2047 73.7342 78.5964 73.4751 78.7135 73.2435Z" fill="#5382A1"/>
<path d="M63.4527 0.107422C63.4527 0.107422 77.4709 10.4828 50.1571 26.4371C28.2542 39.2352 45.1626 46.5323 50.148 54.8696C37.3629 46.3349 27.9804 38.8217 34.2749 31.8291C43.5138 21.5646 69.1087 16.588 63.4527 0.107422Z" fill="#E76F00"/>
<path d="M37.2142 99.6144C61.5105 100.765 98.8204 98.976 99.704 90.47C99.704 90.47 98.0054 93.6945 79.6244 96.2553C58.8869 99.1428 33.3102 98.8056 18.1404 96.9551C18.1407 96.9549 21.2458 98.8568 37.2142 99.6144Z" fill="#5382A1"/>
</svg>
