<svg width="42" height="43" viewBox="0 0 42 43" fill="none" xmlns="http://www.w3.org/2000/svg">
<path d="M6.02381 0.742188C4.5373 0.742188 3.23602 1.21132 2.28321 2.06529C1.33039 2.91926 0.748422 4.18455 0.748422 5.56682C0.748422 8.24873 2.91291 10.3246 5.77432 10.4487C5.85503 10.4774 5.93908 10.4928 6.02381 10.4945C7.56862 10.4945 8.88355 9.99209 9.82292 9.10272C10.7623 8.21335 11.2992 6.93112 11.2992 5.56682C11.2991 5.54899 11.2985 5.53116 11.2975 5.51336C11.1618 2.81451 8.99683 0.742187 6.02381 0.742188ZM6.02381 2.67433C8.32228 2.67433 9.4559 3.92661 9.55278 5.59164C9.54653 6.40521 9.26268 7.09629 8.6942 7.63452C8.11943 8.17869 7.23198 8.56241 6.02381 8.56241C3.73162 8.56241 2.48968 7.1816 2.48968 5.56682C2.48968 4.75943 2.78866 4.09562 3.37751 3.56785C3.96637 3.04009 4.86747 2.67433 6.02381 2.67433ZM1.61905 12.4611C1.38541 12.4611 1.16135 12.5641 0.996149 12.7474C0.830943 12.9307 0.738122 13.1793 0.738098 13.4386V41.7869C0.738122 42.0461 0.830943 42.2947 0.996149 42.4781C1.16135 42.6614 1.38541 42.7644 1.61905 42.7644H10.4286C10.6622 42.7644 10.8863 42.6614 11.0515 42.4781C11.2167 42.2947 11.3095 42.0461 11.3095 41.7869V32.6607V13.4386C11.3095 13.1793 11.2167 12.9307 11.0515 12.7474C10.8863 12.5641 10.6622 12.4611 10.4286 12.4611H1.61905ZM14.8333 12.4611C14.5997 12.4611 14.3756 12.5641 14.2104 12.7474C14.0452 12.9307 13.9524 13.1793 13.9524 13.4386V41.7869C13.9524 42.0461 14.0452 42.2947 14.2104 42.4781C14.3756 42.6614 14.5997 42.7644 14.8333 42.7644H23.6429C23.8765 42.7644 24.1006 42.6614 24.2658 42.4781C24.431 42.2947 24.5238 42.0461 24.5238 41.7869V26.1464V25.9021V25.6577C24.5238 23.757 25.8942 22.2363 27.6071 22.2363C29.3201 22.2363 30.6905 23.757 30.6905 25.6577V41.7869C30.6905 42.0461 30.7833 42.2947 30.9485 42.4781C31.1137 42.6614 31.3378 42.7644 31.5714 42.7644H40.3809C40.6146 42.7644 40.8386 42.6614 41.0038 42.4781C41.1691 42.2947 41.2619 42.0461 41.2619 41.7869V25.1689C41.2619 21.1351 40.1941 17.9396 38.3936 15.7602C36.5932 13.5809 34.0814 12.4611 31.3839 12.4611C27.9444 12.4611 25.8643 13.8551 24.5238 15.0042V13.4386C24.5238 13.1793 24.431 12.9307 24.2658 12.7474C24.1006 12.5641 23.8765 12.4611 23.6429 12.4611H14.8333ZM2.5 14.4161H9.54762V32.6607V40.8093H2.5V14.4161ZM15.7143 14.4161H22.7619V16.9955C22.762 17.1933 22.8161 17.3864 22.9171 17.5493C23.0182 17.7123 23.1614 17.8374 23.3278 17.9081C23.4943 17.9789 23.6762 17.9919 23.8495 17.9456C24.0228 17.8992 24.1793 17.7956 24.2984 17.6484C24.2984 17.6484 26.911 14.4161 31.3839 14.4161C33.6505 14.4161 35.6375 15.3177 37.0946 17.0814C38.5517 18.8452 39.5 21.5145 39.5 25.1689V40.8093H32.4524V25.6577C32.4535 25.5197 32.4283 25.3831 32.3784 25.2567C32.1829 22.4945 30.1446 20.2813 27.6071 20.2813C24.9418 20.2813 22.7619 22.7001 22.7619 25.6577V25.9021V26.1464V40.8093H15.7143V14.4161Z" fill="#23559F"/>
</svg>
