<svg width="100" height="100" viewBox="0 0 100 100" fill="none" xmlns="http://www.w3.org/2000/svg">
<path d="M0.941299 89.5068H4.15282V65.3725L9.19158 86.3589C9.74529 88.8772 10.5758 89.8216 12.1816 89.8216C13.7874 89.8216 14.5072 88.8772 15.1163 86.3589L20.0997 65.3725V89.5068H23.3112V65.3725C23.3112 63.064 22.8128 61.9097 21.7608 61.2801C19.3245 59.916 17.6633 61.0703 16.9435 64.2182L12.0709 84.9947L7.30896 64.2182C6.58914 61.0703 4.92801 59.916 2.49169 61.2801C1.43964 61.9097 0.941299 62.9591 0.941299 65.3725V89.5068Z" fill="#00678F"/>
<path d="M25.969 69.8845H29.1805V83.1059C29.1805 83.8404 29.2913 85.5193 31.0631 85.6242C32.0044 85.6242 38.0399 85.6242 38.0952 85.6242V69.7795H41.3068C41.3068 69.7795 41.3068 91.3955 41.3068 91.5004C41.3068 96.8519 37.8184 98.0062 36.2126 98.0062H26.0797V93.9139H36.268C38.3167 93.4941 38.0952 91.5004 38.0952 90.8708V89.2969H31.2292C28.0177 89.2969 25.969 86.5686 25.969 83.5256C25.969 83.2108 26.0797 69.9894 25.969 69.8845Z" fill="#00678F"/>
<path d="M95.4042 54.4596C93.4109 54.3547 91.9158 54.7744 90.5869 55.7188C90.1993 56.0336 89.6456 56.0336 89.5903 56.873C89.8117 57.2928 89.8117 57.8174 89.9779 58.3421C90.2547 59.2865 90.8084 60.5457 91.2514 61.1752C91.7497 61.9098 92.3034 62.6443 92.8571 63.3788C93.7985 64.5331 94.9059 65.1627 95.8472 66.3169C96.4009 66.9465 96.9546 67.7859 97.4529 68.5205C97.7298 68.9402 97.8959 69.4649 98.2281 69.7797V69.6747C98.062 69.255 98.0066 68.6254 97.8405 68.2057C97.6191 67.7859 97.3422 67.3662 97.1207 66.8416C96.4009 65.0577 95.515 63.3788 94.5737 62.1196C93.7985 61.0703 92.0266 59.7062 91.7497 57.9224C91.7497 57.9224 91.7497 57.9224 91.6944 57.8174C92.2481 57.7125 92.8571 57.3977 93.4109 57.0829C94.2414 56.6632 95.0166 56.7681 95.9026 56.3484C96.2901 56.1385 96.6777 55.9287 97.0653 55.7188C97.0653 55.6139 97.0653 55.404 97.0653 55.2991C96.6224 54.4596 96.2902 53.3054 95.8472 52.5708C94.5737 50.4722 93.1894 48.4785 91.7497 46.7996C90.9745 45.8552 89.9779 45.2256 89.2027 44.4911C88.9258 44.1763 88.4275 44.0714 88.2614 43.6516C87.8184 42.6023 87.5415 41.2382 87.2647 40.084C86.5449 37.4607 85.8804 34.6275 85.216 31.8993C84.773 30.1154 84.4961 28.2267 83.9424 26.5478C81.3954 18.5729 78.6268 13.7461 74.3632 9.02415C73.4219 8.07976 72.3699 7.66004 71.2071 7.13538C70.598 7.13538 69.9889 7.03045 69.3799 6.92551C68.9923 6.61072 68.6047 5.66633 68.2171 5.24661C66.8328 3.5677 63.1783 -0.104915 62.1263 4.72195C61.4618 7.76497 63.1229 10.808 63.6766 12.277C64.1196 13.3264 64.618 14.5855 64.9502 15.7398C65.1163 16.5792 65.1717 17.4187 65.3378 18.2581C65.7254 20.3568 66.113 22.5604 66.6113 24.5541C66.8882 25.4984 67.165 26.5478 67.5526 27.4921C67.7741 28.0168 68.1063 28.2267 68.1617 29.0661C67.8295 30.0105 67.7741 31.3746 67.608 32.5289C66.722 37.7755 67.0543 44.3862 68.3278 48.2686C68.7154 49.4229 69.6567 52.0462 70.9302 50.9969C72.0377 50.1574 71.8162 47.5341 72.093 45.1207C72.1484 44.596 72.093 44.1763 72.2591 43.8615V43.9664C72.5914 45.2256 72.9236 46.5897 73.2558 47.8489C74.031 50.1574 75.3599 52.5708 76.4673 54.1448C77.0764 54.9843 77.5194 56.4533 78.2946 56.978V56.873C78.2946 56.873 78.2946 56.873 78.2392 56.873C78.0731 56.4533 77.8516 56.2435 77.6855 55.9287C77.2425 55.0892 76.7442 54.0399 76.412 53.0955C75.3599 50.4722 74.474 47.5341 73.6434 44.596C73.2558 43.127 72.9236 41.553 72.5914 40.084C72.4253 39.5593 72.4253 38.7198 72.2038 38.405C71.8162 39.4544 71.2625 40.2938 71.041 41.553C70.598 43.5467 70.5426 46.0651 70.3765 48.5834C70.2658 48.5834 70.3212 48.5834 70.2658 48.6884C69.4906 48.2686 69.2137 46.7996 68.8815 45.4355C68.1617 42.0777 67.9956 36.7261 68.66 32.9486C68.8261 32.0042 69.6013 28.8563 69.2691 27.9119C69.103 27.0724 68.6047 26.5478 68.3278 25.8132C67.9956 24.9738 67.6634 23.8195 67.4419 22.7702C66.8328 20.1469 66.5559 17.2088 65.8915 14.5855C65.6146 13.3264 65.0609 12.0672 64.6733 11.0179C64.2304 9.75867 63.6766 8.81429 63.289 7.34524C63.1783 6.82058 63.0122 5.98113 63.1783 5.45647C63.2337 5.03674 63.3444 4.93181 63.5105 4.82688C63.8428 4.30222 64.7287 4.93181 65.0609 5.24661C66.0022 5.98113 66.722 6.61072 67.4972 7.55511C67.8295 7.97483 68.2171 8.91922 68.66 9.12908C68.8261 9.12908 68.9923 9.12908 69.1584 9.12908C69.9336 9.44388 70.8195 9.23401 71.5947 9.65374C72.9236 10.4932 74.0864 11.6474 75.1384 12.9066C78.35 16.7891 81.0631 22.3505 82.835 28.9612C83.1119 30.0105 83.278 31.0598 83.4995 32.1091C83.9978 34.4176 84.6622 36.7261 85.1606 39.0346C85.6589 41.2382 86.1573 43.4418 86.9325 45.3305C87.3201 46.2749 88.7597 46.7996 89.4795 47.3242C89.9779 47.744 90.753 48.1637 91.196 48.5834C92.0266 49.5278 92.8571 50.6821 93.6877 51.7314C94.0753 52.361 95.3488 53.5152 95.4042 54.4596Z" fill="#00678F"/>
<path d="M70.2104 13.8511C69.7675 13.8511 69.4906 13.956 69.2137 14.0609C69.2137 14.0609 69.2137 14.0609 69.2137 14.1659C69.2137 14.1659 69.2137 14.1659 69.2691 14.1659C69.4906 14.9004 69.8228 15.4251 70.0443 16.0546C70.2658 16.7892 70.4319 17.5237 70.598 18.2582L70.6534 18.1533C70.9856 17.7336 71.1517 16.8941 71.1517 15.8448C70.9856 15.53 70.9856 15.2152 70.8749 14.9004C70.7088 14.3757 70.3765 14.1659 70.2104 13.8511Z" fill="#00678F"/>
<path d="M43.7985 89.5067H53.1008C54.2082 89.5067 55.2049 89.087 56.0908 88.3525C57.4751 87.0933 58.1395 85.5193 58.1395 83.3158V78.8037C58.1395 77.0198 57.3644 75.4459 55.8693 74.2916C55.0941 73.767 54.0975 73.4522 53.1008 73.4522H49.2248C47.8959 73.4522 47.2868 72.7176 47.1207 71.0387C47.1207 70.8289 47.1207 70.619 47.1207 70.5141V67.7858C47.1207 67.6809 47.1207 67.4711 47.1207 67.2612C47.2868 66.002 47.6191 65.6872 48.7818 65.4774C48.8926 65.4774 49.0033 65.4774 49.0587 65.4774H58.2503V61.385H49.2248C47.8959 61.385 47.2315 61.4899 46.6224 61.9097C44.7398 63.0639 43.8538 64.8478 43.8538 67.9957V71.3535C43.8538 74.0818 45.4596 76.4952 48.2281 77.0198C48.505 77.0198 48.8372 77.0198 49.1694 77.0198H52.4917C52.6024 77.0198 52.7132 77.0198 52.8239 77.0198C53.8206 77.2297 54.2636 77.5445 54.5958 78.279C54.8173 78.6988 54.8173 79.0135 54.8173 79.4333V83.001C54.8173 83.4207 54.6512 83.9453 54.3743 84.47C54.0975 84.9947 53.5991 85.3095 52.99 85.3095C52.8793 85.3095 52.7686 85.3095 52.6578 85.3095H43.7985V89.5067Z" fill="#E38D1A"/>
<path d="M78.2392 82.3716C78.2392 86.5688 79.9003 88.8773 83.2226 89.2971C83.5548 89.2971 83.8317 89.402 84.1639 89.402H92.5803V85.3097H84.1085C82.2259 85.3097 81.5061 84.4702 81.5061 82.2666V61.2803H78.2946L78.2392 82.3716Z" fill="#E38D1A"/>
<path d="M60.1883 82.5812V68.1006C60.1883 64.428 61.5725 62.1195 64.2857 61.4899C64.5626 61.4899 64.8948 61.385 65.1717 61.385H71.3178C71.6501 61.385 71.9269 61.385 72.2591 61.4899C74.9723 62.2245 76.3012 64.428 76.3012 68.1006V82.5812C76.3012 85.6243 75.7475 87.1982 74.4186 88.2475L77.5748 93.704H73.8649L71.3178 89.2969L68.7154 89.6117H65.2824C64.7287 89.6117 64.0642 89.5067 63.3998 89.1919C61.1849 88.0377 60.1883 85.939 60.1883 82.5812ZM63.6766 82.2664C63.6766 82.4763 63.732 82.6862 63.732 82.896C63.8981 84.5749 64.7287 85.5193 66.0022 85.5193H68.9369L66.2791 80.9023H69.9889L72.3145 84.8897C72.7575 84.47 73.0343 83.7355 73.1451 82.896C73.1451 82.6862 73.1451 82.4763 73.1451 82.2664V68.4154C73.1451 68.2056 73.1451 67.9957 73.1451 67.8908C72.979 66.3168 72.1484 65.3724 70.8749 65.3724H66.0022C64.5626 65.3724 63.6213 66.5267 63.6213 68.4154L63.6766 82.2664Z" fill="#E38D1A"/>
<path d="M94.0199 89.5068H94.4629V86.0441H95.072V85.3096H93.3555V86.0441H94.0199V89.5068ZM97.619 89.5068H98.062V85.4145H97.3975L96.8438 88.2477L96.2348 85.4145H95.5703V89.5068H96.0133V86.3589L96.6223 89.5068H96.9546L97.5637 86.3589L97.619 89.5068Z" fill="#E38D1A"/>
</svg>
