<svg width="100" height="100" viewBox="0 0 100 100" fill="none" xmlns="http://www.w3.org/2000/svg">
<path d="M49.4357 99.7115C49.0971 99.7115 48.781 99.5642 48.4876 99.3066L45.4853 96.3988C45.0338 95.9939 45.2596 95.8467 45.395 95.7731C46.0045 95.4418 46.1174 95.3682 46.7494 94.7793C46.8171 94.7056 46.9074 94.7425 46.9752 94.8161L49.2776 97.0613C49.3679 97.1349 49.4808 97.1349 49.5485 97.0613L58.5553 88.5588C58.6456 88.4852 58.6907 88.338 58.6907 88.1539V71.1856C58.6907 71.0016 58.6456 70.8544 58.5553 70.7808L49.5485 62.315C49.4582 62.2414 49.3454 62.2414 49.2776 62.315L40.2709 70.7808C40.1806 70.8544 40.1354 71.0384 40.1354 71.1856V88.1539C40.1354 88.3011 40.1806 88.4852 40.2709 88.5588L42.7314 90.8777C44.0632 91.9819 44.8984 90.6936 44.8984 89.4054V72.6579C44.8984 72.4371 45.0113 72.2163 45.1693 72.2163H46.3205C46.456 72.2163 46.5914 72.4003 46.5914 72.6579V89.4054C46.5914 92.3132 45.6208 94.0063 43.9277 94.0063C43.4086 94.0063 43.0022 94.0063 41.851 93.0861L39.4808 90.8777C38.8939 90.3256 38.5327 89.2949 38.5327 88.1907V71.2225C38.5327 70.1182 38.8939 69.0876 39.4808 68.5355L48.4876 60.033C49.0519 59.5177 49.8194 59.5177 50.3837 60.033L59.3905 68.5355C59.9774 69.0876 60.3386 70.1182 60.3386 71.2225V88.1907C60.3386 89.2949 59.9774 90.3256 59.3905 90.8777L50.3837 99.3802C50.0903 99.601 49.7517 99.7115 49.4357 99.7115ZM52.2122 88.0435C48.2618 88.0435 47.4492 85.0989 47.4492 82.596C47.4492 82.3751 47.5621 82.1543 47.7201 82.1543H48.8939C49.0293 82.1543 49.1422 82.3015 49.1422 82.5224C49.3228 84.4732 49.842 85.4302 52.2347 85.4302C54.1309 85.4302 54.9436 84.7308 54.9436 83.0745C54.9436 82.1175 54.7178 81.4181 51.7607 80.9396C49.3002 80.5348 47.7652 79.6514 47.7652 76.4491C47.7652 73.4677 49.3002 71.7009 51.8736 71.7009C54.763 71.7009 56.1851 73.3205 56.3657 76.854C56.3657 76.9644 56.3431 77.0748 56.298 77.1853C56.2528 77.2589 56.1851 77.3325 56.1174 77.3325H54.9436C54.8307 77.3325 54.7178 77.1853 54.6952 77.0012C54.4244 74.9768 53.7246 74.3143 51.8736 74.3143C49.7968 74.3143 49.5485 75.4921 49.5485 76.3755C49.5485 77.4429 49.842 77.7742 52.6411 78.3631C55.4176 78.952 56.7268 79.7986 56.7268 82.9641C56.7043 86.2031 55.079 88.0435 52.2122 88.0435Z" fill="#539E43"/>
<path d="M21.4898 33.3477C21.4898 32.6852 21.2641 32.0595 20.9029 31.7282L11.3318 22.7472C11.1738 22.5999 10.9932 22.5263 10.8126 22.4895H10.7223C10.5418 22.4895 10.3612 22.5999 10.2032 22.7472L0.632043 31.7282C0.270869 32.0595 0.0451355 32.6852 0.0451355 33.3477L0.0677089 57.4935C0.0677089 57.8247 0.180576 58.156 0.361163 58.3032C0.54175 58.4873 0.767483 58.4873 0.925497 58.3032L6.61399 53.0029C6.97516 52.6717 7.20089 52.0459 7.20089 51.3834V40.0835C7.20089 39.421 7.42663 38.7952 7.7878 38.464L10.2032 36.1819C10.3837 35.9979 10.5869 35.9242 10.7901 35.9242C10.9932 35.9242 11.1964 35.9979 11.3544 36.1819L13.7697 38.464C14.1309 38.7952 14.3567 39.421 14.3567 40.0835V51.3834C14.3567 52.0459 14.5824 52.6717 14.9436 53.0029L20.632 58.3032C20.8126 58.4873 21.0384 58.4873 21.219 58.3032C21.3995 58.156 21.5124 57.8247 21.5124 57.4935L21.4898 33.3477Z" fill="#333333"/>
<path d="M67.4944 0.110423C67.3138 -0.0368075 67.088 -0.0368075 66.93 0.110423C66.7494 0.29446 66.6366 0.58892 66.6366 0.920188V24.8451C66.6366 25.0659 66.5689 25.2868 66.4334 25.434C66.298 25.5444 66.1625 25.5444 66.0271 25.434L63.6343 23.1887C63.2732 22.8575 62.8443 22.8575 62.4831 23.1887L52.912 32.2066C52.5508 32.5378 52.3251 33.1636 52.3251 33.8261V51.825C52.3251 52.4875 52.5508 53.1133 52.912 53.4445L62.4831 62.4624C62.8443 62.7936 63.2732 62.7936 63.6343 62.4624L73.2054 53.4445C73.5666 53.1133 73.7923 52.4875 73.7923 51.825V6.95662C73.7923 6.25728 73.5666 5.63155 73.2054 5.30028L67.4944 0.110423ZM66.614 45.899C66.614 46.083 66.5689 46.2303 66.4786 46.3039L63.2054 49.3957C63.1151 49.4693 63.0023 49.4693 62.912 49.3957L59.6388 46.3039C59.5485 46.2303 59.5034 46.0462 59.5034 45.899V39.7153C59.5034 39.5313 59.5485 39.384 59.6388 39.3104L62.912 36.2186C63.0023 36.145 63.1151 36.145 63.2054 36.2186L66.4786 39.3104C66.5689 39.384 66.614 39.5681 66.614 39.7153V45.899Z" fill="#333333"/>
<path d="M99.3453 39.5681C99.7065 39.2369 99.9097 38.6111 99.9097 37.9486V33.5685C99.9097 32.906 99.6839 32.2802 99.3453 31.949L89.842 22.9679C89.4808 22.6367 89.0519 22.6367 88.6907 22.9679L79.1196 31.9858C78.7584 32.317 78.5327 32.9428 78.5327 33.6053V51.6042C78.5327 52.2667 78.7584 52.8924 79.1196 53.2237L88.623 62.0575C88.9842 62.3888 89.4131 62.3888 89.7517 62.0575L95.5079 56.8308C95.6885 56.6836 95.8013 56.3523 95.8013 56.0211C95.8013 55.6898 95.6885 55.3585 95.5079 55.2113L85.8916 46.1935C85.711 46.0094 85.5982 45.715 85.5982 45.3837V39.7522C85.5982 39.4209 85.711 39.0896 85.8916 38.9424L88.8939 36.145C89.0745 35.961 89.3002 35.961 89.4808 36.145L92.483 38.9424C92.6636 39.1264 92.7765 39.4209 92.7765 39.7522V44.1691C92.7765 44.5003 92.8894 44.8316 93.07 44.9788C93.2505 45.1629 93.4763 45.1629 93.6569 44.9788L99.3453 39.5681Z" fill="#333333"/>
<path d="M89.1196 38.7215C89.1873 38.6479 89.2776 38.6479 89.3453 38.7215L91.1738 40.4514C91.2415 40.525 91.2867 40.6355 91.2867 40.7827V44.2426C91.2867 44.3898 91.2415 44.5002 91.1738 44.5739L89.3453 46.3038C89.2776 46.3774 89.1873 46.3774 89.1196 46.3038L87.2912 44.5739C87.2234 44.5002 87.1783 44.3898 87.1783 44.2426V40.7827C87.1783 40.6355 87.2234 40.525 87.2912 40.4514L89.1196 38.7215Z" fill="#539E43"/>
<mask id="mask0_42_119" style="mask-type:alpha" maskUnits="userSpaceOnUse" x="26" y="22" width="22" height="41">
<path d="M37.4944 23.0414C37.1332 22.7102 36.7043 22.7102 36.3431 23.0414L26.8397 31.9856C26.4786 32.3169 26.2754 32.9426 26.2754 33.6052V51.5304C26.2754 52.193 26.5011 52.8187 26.8397 53.15L36.3431 62.0942C36.7043 62.4255 37.1332 62.4255 37.4944 62.0942L46.9977 53.15C47.3589 52.8187 47.5621 52.193 47.5621 51.5304V33.6052C47.5621 32.9426 47.3363 32.3169 46.9977 31.9856L37.4944 23.0414Z" fill="white"/>
</mask>
<g mask="url(#mask0_42_119)">
<path d="M37.4944 23.0414C37.1332 22.7102 36.7043 22.7102 36.3431 23.0414L26.8397 31.9856C26.4786 32.3169 26.2754 32.9426 26.2754 33.6052V51.5304C26.2754 52.193 26.5011 52.8187 26.8397 53.15L36.3431 62.0942C36.7043 62.4255 37.1332 62.4255 37.4944 62.0942L46.9977 53.15C47.3589 52.8187 47.5621 52.193 47.5621 51.5304V33.6052C47.5621 32.9426 47.3363 32.3169 46.9977 31.9856L37.4944 23.0414Z" fill="url(#paint0_linear_42_119)"/>
<path d="M47.0203 31.9857L37.4718 23.0415C37.3815 22.9678 37.2686 22.8942 37.1783 22.8574L26.4786 52.7451C26.5689 52.9292 26.6817 53.0764 26.7946 53.1868L36.3431 62.131C36.614 62.3887 36.93 62.4623 37.2235 62.3151L47.2686 32.3538C47.2009 32.2065 47.1106 32.0961 47.0203 31.9857Z" fill="url(#paint1_linear_42_119)"/>
<path fill-rule="evenodd" clip-rule="evenodd" d="M47.0429 53.15C47.3138 52.8923 47.517 52.4507 47.6072 51.9722L37.1332 22.8206C36.8623 22.747 36.5689 22.7838 36.3206 23.0414L26.8398 31.9489L37.0655 62.3519C37.2009 62.3151 37.3589 62.2415 37.4944 62.131L47.0429 53.15Z" fill="url(#paint2_linear_42_119)"/>
<path fill-rule="evenodd" clip-rule="evenodd" d="M47.0429 53.15L37.5169 62.0942C37.3815 62.2046 37.2461 62.2782 37.088 62.315L37.2686 62.8671L47.833 52.8923V52.6715L47.5621 51.9353C47.5169 52.4506 47.3138 52.8923 47.0429 53.15Z" fill="url(#paint3_linear_42_119)"/>
<path fill-rule="evenodd" clip-rule="evenodd" d="M47.0429 53.15L37.5169 62.0942C37.3815 62.2046 37.2461 62.2782 37.088 62.315L37.2686 62.8671L47.833 52.8923V52.6715L47.5621 51.9353C47.5169 52.4506 47.3138 52.8923 47.0429 53.15Z" fill="url(#paint4_linear_42_119)"/>
</g>
<defs>
<linearGradient id="paint0_linear_42_119" x1="40.7904" y1="29.709" x2="22.0539" y2="47.7637" gradientUnits="userSpaceOnUse">
<stop stop-color="#41873F"/>
<stop offset="0.3288" stop-color="#418B3D"/>
<stop offset="0.6352" stop-color="#419637"/>
<stop offset="0.9319" stop-color="#3FA92D"/>
<stop offset="1" stop-color="#3FAE2A"/>
</linearGradient>
<linearGradient id="paint1_linear_42_119" x1="35.4758" y1="44.6671" x2="65.8877" y2="34.5341" gradientUnits="userSpaceOnUse">
<stop offset="0.1376" stop-color="#41873F"/>
<stop offset="0.4032" stop-color="#54A044"/>
<stop offset="0.7136" stop-color="#66B848"/>
<stop offset="0.9081" stop-color="#6CC04A"/>
</linearGradient>
<linearGradient id="paint2_linear_42_119" x1="25.9283" y1="42.5684" x2="47.9186" y2="42.5684" gradientUnits="userSpaceOnUse">
<stop offset="0.0919165" stop-color="#6CC04A"/>
<stop offset="0.2864" stop-color="#66B848"/>
<stop offset="0.5968" stop-color="#54A044"/>
<stop offset="0.8624" stop-color="#41873F"/>
</linearGradient>
<linearGradient id="paint3_linear_42_119" x1="25.9283" y1="57.4313" x2="47.9186" y2="57.4313" gradientUnits="userSpaceOnUse">
<stop offset="0.0919165" stop-color="#6CC04A"/>
<stop offset="0.2864" stop-color="#66B848"/>
<stop offset="0.5968" stop-color="#54A044"/>
<stop offset="0.8624" stop-color="#41873F"/>
</linearGradient>
<linearGradient id="paint4_linear_42_119" x1="51.1223" y1="28.8615" x2="37.1262" y2="73.8395" gradientUnits="userSpaceOnUse">
<stop stop-color="#41873F"/>
<stop offset="0.3288" stop-color="#418B3D"/>
<stop offset="0.6352" stop-color="#419637"/>
<stop offset="0.9319" stop-color="#3FA92D"/>
<stop offset="1" stop-color="#3FAE2A"/>
</linearGradient>
</defs>
</svg>
