<svg width="100" height="100" viewBox="0 0 100 100" fill="none" xmlns="http://www.w3.org/2000/svg">
<path d="M90.9722 51.2499C89.1468 62.857 85.5952 66.2499 79.3055 74.0475C73.0159 80.6547 63.9682 91.6864 51.1508 91.0713C39.5436 89.2459 36.1508 85.6944 28.3532 79.4047C21.746 73.115 10.7143 64.0674 11.3294 51.2499C13.1548 39.6428 16.7063 36.2499 22.996 28.4523C29.2857 21.8451 38.3333 10.8134 51.1508 11.4285C62.7579 13.2539 66.1508 16.8055 73.9484 23.0951C80.5555 29.3848 91.5873 38.4324 90.9722 51.2499Z" fill="#3765AF"/>
<path d="M35.5754 46.6667C37.1429 46.6667 38.1151 46.9247 38.631 47.5199C39.1468 48.0358 39.2064 49.0874 38.9484 50.3771C38.6905 51.8056 38.1746 52.8374 37.3214 53.4326C36.5476 54.008 35.3175 54.3453 33.6905 54.3453H31.2302L32.7183 46.5477C32.7183 46.6667 35.5754 46.6667 35.5754 46.6667ZM25.7143 62.2421H29.7421L30.6548 57.3017H34.1667C35.7341 57.3017 36.8849 57.1628 37.9365 56.8453C38.9087 56.5278 39.8214 55.9921 40.5952 55.2183C41.25 54.6429 41.8254 53.8493 42.2818 53.135C42.6786 52.4207 42.996 51.508 43.1349 50.6747C43.5318 48.4723 43.2738 46.7858 42.2222 45.5556C41.1905 44.3255 39.504 43.7302 37.1627 43.7302H29.3651L25.7143 62.2421Z" fill="white"/>
<path d="M47.2024 38.8096H51.2302L50.3175 43.75H53.8889C56.0913 43.75 57.7183 44.1469 58.4921 44.9802C59.3452 45.754 59.6627 47.0635 59.2064 48.8096L57.5199 57.4405H53.4325L55.0595 49.2659C55.2579 48.3532 55.1984 47.6985 54.8611 47.381C54.5437 47.0635 53.8889 46.8651 52.8572 46.8651H49.6826L47.5992 57.4405H43.5714L47.2024 38.8096Z" fill="white"/>
<path d="M68.0952 46.6667C69.6627 46.6667 70.6349 46.9247 71.1508 47.5199C71.6667 48.0358 71.7262 49.0874 71.4683 50.3771C71.2103 51.8056 70.6944 52.8374 69.8413 53.4326C69.0675 54.008 67.8373 54.3453 66.2103 54.3453H63.75L65.2381 46.5477C65.3175 46.6667 68.0952 46.6667 68.0952 46.6667ZM58.2936 62.2421H62.3214L63.2341 57.3017H66.746C68.3135 57.3017 69.4643 57.1628 70.5159 56.8453C71.4881 56.5278 72.4008 55.9921 73.1746 55.2183C73.8294 54.6429 74.4048 53.8493 74.8611 53.135C75.2579 52.4207 75.5754 51.508 75.7143 50.6747C76.1111 48.4723 75.8532 46.7858 74.8016 45.5556C73.7698 44.3255 72.0833 43.7302 69.7421 43.7302H61.9444L58.2936 62.2421Z" fill="white"/>
</svg>
