<svg width="100" height="100" viewBox="0 0 100 100" fill="none" xmlns="http://www.w3.org/2000/svg">
<path d="M99.6125 59.8808C99.0129 58.1201 97.4423 56.8936 95.4108 56.5991C94.4531 56.4605 93.3561 56.5196 92.0582 56.7791C89.7958 57.2317 88.1173 57.404 86.8924 57.4375C91.5159 49.8674 95.2757 41.2347 97.4402 33.1085C100.94 19.969 99.0697 13.983 96.8843 11.2753C91.1005 4.10892 82.6619 0.258802 72.481 0.140781C67.0506 0.0765079 62.2827 1.1163 59.7958 1.86384C57.4801 1.4679 54.9901 1.24664 52.3774 1.20566C47.4806 1.12996 43.1536 2.16505 39.4563 4.29256C37.409 3.62161 34.1242 2.67543 30.3305 2.07144C21.4076 0.650936 14.2164 1.75791 8.95634 5.36124C2.58683 9.72421 -0.366057 17.3044 0.180132 27.8916C0.353343 31.253 2.2926 41.4801 5.34572 51.1795C7.10046 56.7543 8.97159 61.384 10.9072 64.9407C13.652 69.9843 16.5889 72.9545 19.8861 74.0209C21.7344 74.6182 25.0921 75.0361 28.624 72.1843C29.0716 72.7097 29.6686 73.2322 30.4614 73.7173C31.4679 74.3329 32.6988 74.8359 33.9279 75.134C38.3582 76.208 42.5078 75.9393 46.048 74.4341C46.0697 75.0446 46.0866 75.628 46.1009 76.1317C46.1245 76.9488 46.1476 77.7499 46.1785 78.499C46.3882 83.5652 46.7436 87.5042 47.7968 90.2601C47.8545 90.4119 47.9323 90.6428 48.0145 90.8876C48.5397 92.4476 49.4185 95.0589 51.6533 97.1042C53.9681 99.2225 56.7677 99.8724 59.3316 99.8722C60.6175 99.8722 61.8446 99.7087 62.9205 99.485C66.7568 98.688 71.1134 97.4733 74.2649 93.1219C77.2443 89.0082 78.6928 82.8125 78.955 73.0497C78.9889 72.7738 79.0203 72.5102 79.0506 72.2589C79.0709 72.0894 79.0917 71.916 79.1127 71.7432L79.8148 71.8029L79.9956 71.8148C83.9028 71.9875 88.6801 71.184 91.6141 69.8624C93.9326 68.8191 101.362 65.016 99.6125 59.8808Z" fill="black"/>
<path d="M92.9318 60.8795C81.3148 63.2032 80.5161 59.3892 80.5161 59.3892C92.782 41.7402 97.9094 19.3375 93.4845 13.8546C81.4129 -1.1018 60.5164 5.97161 60.1676 6.15525L60.0554 6.17473C57.7603 5.71273 55.1917 5.4375 52.3048 5.39181C47.0482 5.30828 43.0609 6.72811 40.0353 8.95304C40.0353 8.95304 2.75795 -5.93842 4.49167 27.6819C4.86049 34.8343 15.0635 81.8006 27.2332 67.6146C31.6813 62.4272 35.979 58.0412 35.979 58.0412C38.1136 59.4162 40.669 60.1177 43.348 59.8657L43.5561 59.6944C43.4914 60.3385 43.521 60.9684 43.6395 61.7142C40.5044 65.1108 41.4256 65.7072 35.1584 66.9582C28.8168 68.2255 32.5422 70.4818 34.9746 71.0714C37.9233 71.7865 44.7452 72.7994 49.3547 66.5423L49.1709 67.2562C50.3993 68.2103 51.2619 73.4621 51.1173 78.2228C50.9727 82.9837 50.8762 86.2522 51.8441 88.8052C52.812 91.3582 53.7766 97.1025 62.0154 95.3907C68.8997 93.9601 72.4672 90.2528 72.9635 84.0689C73.3157 79.6726 74.1127 80.3225 74.163 76.392L74.8023 74.5312C75.5395 68.5717 74.9194 66.6491 79.1607 67.5433L80.1914 67.6311C83.3131 67.7689 87.3988 67.1443 89.7967 66.0635C94.9603 63.7398 98.0226 59.8601 92.9314 60.8795H92.9318Z" fill="#336791"/>
<path d="M42.2173 30.8807C41.1707 30.7394 40.2224 30.8701 39.7427 31.2222C39.4727 31.4204 39.3894 31.6499 39.367 31.808C39.3067 32.2266 39.6092 32.6893 39.7949 32.928C40.3206 33.6037 41.0887 34.0681 41.849 34.1705C41.9591 34.1853 42.0686 34.1924 42.1776 34.1924C43.4455 34.1924 44.5979 33.2353 44.6995 32.5287C44.8266 31.6439 43.5018 31.054 42.2173 30.8807Z" fill="white"/>
<path d="M76.8986 30.9086H76.8984C76.7986 30.2151 75.5256 30.0173 74.3178 30.1801C73.1118 30.3432 71.942 30.871 72.0397 31.5662C72.1182 32.1068 73.1245 33.0297 74.3162 33.0294C74.4166 33.0294 74.5182 33.0229 74.6206 33.0091C75.4159 32.9022 75.9995 32.4125 76.2767 32.1301C76.6991 31.7001 76.9432 31.2204 76.8986 30.9086Z" fill="white"/>
<path d="M96.7977 60.6156C96.3547 59.3167 94.9291 58.8985 92.5603 59.3731C85.527 60.7806 83.0083 59.8055 82.1811 59.215C87.648 51.139 92.1453 41.3773 94.5714 32.2691C95.7208 27.9547 96.3557 23.948 96.4074 20.6824C96.4647 17.0974 95.8353 14.4636 94.5367 12.8545C89.3014 6.36762 81.618 2.88813 72.3171 2.79251C65.9231 2.72286 60.5208 4.30976 59.4734 4.75586C57.2679 4.22398 54.8635 3.89747 52.2462 3.85581C47.446 3.78057 43.297 4.89493 39.8617 7.16622C38.3695 6.62785 34.5132 5.34418 29.7975 4.60761C21.6441 3.33446 15.1654 4.29901 10.5418 7.47527C5.02494 11.2654 2.47806 18.0403 2.97159 27.6114C3.13764 30.8318 5.02956 40.7377 8.0157 50.2246C11.9462 62.7108 16.2185 69.7795 20.7141 71.2334C21.2402 71.4036 21.8471 71.5227 22.5159 71.5227C24.1559 71.5227 26.1663 70.8059 28.2582 68.3673C31.7328 64.3138 34.9769 60.9172 36.1727 59.683C37.9399 60.603 39.8811 61.1165 41.867 61.168C41.8704 61.2184 41.8757 61.2688 41.8804 61.319C41.482 61.7772 41.1552 62.1787 40.8767 62.5216C39.5009 64.2151 39.2145 64.5676 34.7859 65.4519C33.5263 65.7039 30.1801 66.3726 30.1314 68.6468C30.0781 71.1315 34.0861 72.1751 34.543 72.2857C36.1344 72.672 37.6674 72.8626 39.1296 72.8626C42.6857 72.8624 45.8148 71.7292 48.3157 69.5365C48.2386 78.3948 48.6196 87.1237 49.7164 89.7833C50.6145 91.9603 52.8092 97.2813 59.7416 97.2808C60.7584 97.2808 61.8783 97.1662 63.1099 96.9102C70.3446 95.4059 73.4861 92.3054 74.7016 85.4696C75.352 81.8163 76.4681 73.0922 76.9928 68.4128C78.1007 68.7478 79.527 68.9012 81.0688 68.901C84.2845 68.901 87.9949 68.2385 90.3219 67.1911C92.9358 66.0141 97.6531 63.1251 96.7977 60.6156ZM79.5688 28.994C79.5448 30.3756 79.3487 31.6297 79.1409 32.9389C78.9173 34.3468 78.6859 35.8025 78.6277 37.5697C78.5702 39.2894 78.7917 41.0774 79.006 42.8063C79.4388 46.2985 79.8829 49.894 78.1635 53.4418C77.8963 52.9816 77.6383 52.4795 77.4018 51.9234C77.1882 51.4211 76.7242 50.6142 76.082 49.4974C73.5822 45.1506 67.7286 34.9712 70.7252 30.8174C71.6175 29.5808 73.8827 28.3099 79.5688 28.994ZM72.6767 5.59007C81.0102 5.76856 87.6021 8.79164 92.2695 14.5749C95.8492 19.0109 91.9074 39.1953 80.4961 56.6084C80.3834 56.4696 80.2686 56.3294 80.1499 56.1856C80.1025 56.1281 80.0543 56.0696 80.0055 56.0105C82.9543 51.2881 82.3776 46.6159 81.8644 42.4733C81.6536 40.7733 81.4545 39.1676 81.5051 37.6595C81.5575 36.0605 81.7755 34.6897 81.9861 33.3639C82.2455 31.73 82.509 30.0396 82.4363 28.0467C82.4905 27.8378 82.5125 27.5908 82.4841 27.2976C82.2984 25.3864 80.0485 19.6675 75.4623 14.4905C72.954 11.6593 69.2956 8.49065 64.3007 6.35351C66.4492 5.92174 69.3873 5.51908 72.6767 5.59007ZM26.0446 66.5824C23.74 69.2694 22.1483 68.7545 21.6249 68.5854C18.2145 67.4823 14.2577 60.4931 10.769 49.4096C7.75034 39.8195 5.98614 30.176 5.84665 27.4719C5.40577 18.9197 7.54365 12.9593 12.2012 9.75641C19.7808 4.54401 32.2427 7.66383 37.2501 9.24625C37.1781 9.31501 37.1032 9.3795 37.0319 9.44937C28.815 17.4965 29.0099 31.2452 29.03 32.0854C29.0293 32.4097 29.0573 32.8688 29.0958 33.5003C29.2372 35.8126 29.5002 40.1164 28.7975 44.9904C28.1441 49.5196 29.5838 53.9526 32.7469 57.1529C33.0744 57.4841 33.4162 57.7951 33.7693 58.0878C32.3612 59.55 29.3014 62.7831 26.0446 66.5824ZM34.8254 55.2213C32.276 52.6421 31.1182 49.0542 31.6485 45.377C32.3908 40.2282 32.1166 35.7441 31.9695 33.335C31.949 32.998 31.9307 32.7026 31.9199 32.4695C33.1203 31.4375 38.6831 28.547 42.6501 29.4285C44.4607 29.8307 45.5635 31.0259 46.0222 33.0822C48.3958 43.7272 46.3365 48.164 44.6818 51.7293C44.3406 52.4638 44.0185 53.1581 43.7432 53.8765L43.53 54.4317C42.9901 55.8356 42.4878 57.1408 42.1764 58.3803C39.4665 58.3723 36.83 57.2498 34.8254 55.2213ZM35.2413 69.5775C34.4501 69.3858 33.7383 69.0528 33.3208 68.7767C33.6695 68.6175 34.2903 68.4011 35.3667 68.1861C40.5767 67.1459 41.3811 66.412 43.1381 64.2487C43.5411 63.7528 43.9977 63.1905 44.63 62.5057C44.6302 62.5052 44.6305 62.505 44.6307 62.5048C45.5727 61.4822 46.0035 61.6556 46.7848 61.9698C47.418 62.2239 48.0346 62.9934 48.2848 63.8404C48.403 64.2404 48.536 64.9998 48.1012 65.5903C44.4307 70.5736 39.0824 70.5096 35.2413 69.5775ZM62.5065 94.1807C56.133 95.5049 53.8764 92.3515 52.3894 88.7466C51.4296 86.4191 50.958 75.9242 51.2926 64.3347C51.297 64.1804 51.2744 64.0314 51.2305 63.8915C51.1924 63.6212 51.1337 63.3477 51.0524 63.0725C50.5545 61.3862 49.3418 59.9755 47.8868 59.3908C47.3088 59.1585 46.2476 58.7324 44.9725 59.0486C45.2446 57.9622 45.7162 56.7356 46.2272 55.4072L46.4418 54.8482C46.6834 54.2182 46.9861 53.5657 47.3067 52.875C49.0383 49.1445 51.4099 44.0351 48.836 32.4921C47.8718 28.1688 44.6524 26.0576 39.7718 26.5478C36.8457 26.8414 34.169 27.9863 32.8339 28.6427C32.5469 28.7837 32.2843 28.9199 32.039 29.0527C32.4115 24.6965 33.8196 16.5557 39.0861 11.4051C42.4018 8.16234 46.818 6.56089 52.1986 6.64711C62.8002 6.81552 69.5986 12.0913 73.4353 16.4876C76.7413 20.2762 78.5316 24.0922 79.2462 26.1503C73.8732 25.6207 70.2189 26.6493 68.3663 29.2173C64.3363 34.8035 70.5711 45.6462 73.5677 50.857C74.1171 51.8121 74.5915 52.6374 74.7406 52.9881C75.7164 55.2813 76.9797 56.8122 77.9021 57.93C78.1848 58.2724 78.4591 58.6045 78.6677 58.8945C77.0404 59.3496 74.1173 60.4006 74.3836 65.6546C74.1688 68.2912 72.6409 80.6343 71.8649 84.9953C70.8404 90.7566 68.654 92.9026 62.5065 94.1807ZM89.1097 64.6592C87.4457 65.4083 84.661 65.9702 82.0155 66.0906C79.0935 66.2234 77.6062 65.7733 77.2563 65.4965C77.0919 62.2224 78.349 61.8802 79.679 61.5181C79.888 61.461 80.0919 61.4056 80.2887 61.3389C80.4111 61.4354 80.545 61.5313 80.6917 61.6251C83.0402 63.1283 87.2291 63.2904 93.1425 62.1068C93.1642 62.1023 93.1859 62.0983 93.2074 62.0941C92.4099 62.8172 91.045 63.7878 89.1097 64.6592Z" fill="white"/>
</svg>
