<svg width="100" height="100" viewBox="0 0 100 100" fill="none" xmlns="http://www.w3.org/2000/svg">
<path d="M82.46 45.8401C82.22 31.7501 70.7 20.3501 56.62 20.3501C47.07 20.3501 38.25 25.7401 33.71 34.0701C31.63 32.6001 29.18 31.7401 26.61 31.7401C20 31.7401 14.6 37.1301 14.6 43.7501C14.6 43.9901 14.6 44.3601 14.6 44.6101C6.64 46.4501 1 53.5501 1 61.8801C1 71.6801 8.96 79.6401 18.76 79.6401H82.1C91.41 79.6401 99 72.0501 99 62.7401C99 53.5501 91.65 46.0801 82.46 45.8401ZM82.1 77.2001H18.76C10.31 77.2001 3.45 70.3401 3.45 61.8901C3.45 54.4201 8.84 48.0501 16.19 46.8201L17.42 46.5801L17.17 45.3501C17.05 44.7401 17.05 44.2501 17.05 43.7601C17.05 38.4901 21.34 34.2001 26.61 34.2001C29.06 34.2001 31.39 35.1801 33.22 36.8901L34.45 38.1201L35.18 36.6501C38.98 28.3201 47.43 22.9301 56.62 22.9301C69.6 22.9301 80.14 33.4701 80.14 46.4501C80.14 46.6901 80.14 46.9401 80.14 47.0601V48.5301L81.73 48.4101C81.97 48.4101 82.1 48.4101 82.34 48.4101C90.3 48.4101 96.8 54.9001 96.8 62.8601C96.8 70.8301 90.06 77.2001 82.1 77.2001Z" fill="black"/>
<path d="M38.61 49.3901C38 49.3901 37.39 49.7601 37.26 50.3701L31.01 66.1701L33.21 67.0301L35.05 62.5001H42.28L44.12 67.0301L46.33 66.1701L40.08 50.3701C39.71 49.7601 39.22 49.3901 38.61 49.3901ZM35.91 60.0401L38.6 53.1801L41.3 60.0401H35.91Z" fill="black"/>
<path d="M55.39 48.78H47.92V50V60.54V66.67H50.25V60.54H55.39C58.57 60.54 61.27 57.97 61.27 54.66C61.27 51.35 58.7 48.78 55.39 48.78ZM55.39 58.09H50.25V51.23H55.39C57.35 51.23 58.82 52.82 58.82 54.66C58.82 56.49 57.35 58.09 55.39 58.09Z" fill="black"/>
<path d="M64.21 50H66.54V66.54H64.21V50Z" fill="black"/>
</svg>
