<svg width="100" height="100" viewBox="0 0 100 100" fill="none" xmlns="http://www.w3.org/2000/svg">
<path d="M86.0474 57.5593C82.5683 57.5836 79.5446 58.7008 77.0127 60.3523C76.0838 57.8993 75.1548 55.7135 74.9909 54.1106C74.8087 52.2405 74.5902 51.0991 74.8087 48.8647C75.0273 46.6303 76.0109 43.4488 75.9927 43.2059C75.9745 42.9631 75.7741 41.8216 73.7705 41.7973C71.7668 41.773 70.0364 42.3073 69.8361 43.0116C69.6357 43.716 69.2532 45.3189 68.9982 46.9704C68.6521 49.399 64.9909 58.0693 62.8962 62.6109C62.2222 60.838 61.6393 59.2837 61.5118 58.045C61.3297 56.175 61.1111 55.0335 61.3297 52.7991C61.5483 50.5648 62.5319 47.3832 62.5137 47.1404C62.4954 46.8975 62.2951 45.756 60.2914 45.7317C58.2878 45.7075 56.5574 46.2418 56.357 46.9461C56.1566 47.6504 55.9381 49.3019 55.5191 50.9048C55.1002 52.5077 50.2368 66.9825 48.9617 70.7226C48.306 72.6413 47.7413 74.1713 47.3406 75.2157C47.3406 75.2157 47.3224 75.2885 47.2678 75.4099C46.9217 76.3085 46.7213 76.7943 46.7213 76.7943C46.7213 76.7943 46.7213 76.7943 46.7213 76.8186C46.4481 77.4743 46.1566 78.0815 46.0109 78.0815C45.9016 78.0815 45.7013 76.3328 46.0474 73.9528C46.776 68.9254 48.5064 61.1052 48.4882 60.838C48.4882 60.6923 48.816 59.3322 47.3588 58.6279C45.9381 57.9236 45.428 59.0894 45.3005 59.0894C45.173 59.0894 45.082 59.5022 45.082 59.5022C45.082 59.5022 46.6667 50.7105 42.0583 50.7105C39.1803 50.7105 35.2095 54.9121 33.2423 58.7008C32.0036 59.5994 29.3625 61.518 26.5392 63.5824C25.4645 64.3838 24.3534 65.1853 23.3151 65.9382C23.2423 65.841 23.1694 65.7196 23.0965 65.6225C17.5228 57.6807 7.21311 52.0705 7.65027 41.4087C7.8142 37.5229 8.81602 27.3225 27.4499 14.9364C42.7869 4.85743 54.9909 7.65039 57.1038 13.8435C60.1275 22.6838 50.5647 39.1015 34.7177 41.4816C28.6703 42.3802 25.5009 39.2715 24.6994 38.1058C23.8616 36.8914 23.7341 36.8186 23.4244 37.0614C22.9144 37.4257 23.2423 38.5186 23.4244 39.1501C23.898 40.8016 25.847 43.716 29.1439 45.1489C32.0583 46.4118 39.1439 47.1161 47.7231 42.6959C57.3224 37.7415 64.827 23.971 62.6229 12.4348C60.4189 0.72871 45.847 -3.13286 32.0583 3.40023C23.8616 7.28609 14.9727 13.4063 8.57923 21.3723C0.983601 30.8441 -0.218585 39.0772 0.273219 42.5259C2.04007 54.7664 14.6994 62.7323 19.7632 68.634C19.5082 68.8283 19.2714 68.9983 19.071 69.144C16.5392 70.8198 6.88524 77.5472 4.48087 84.6631C1.74863 92.7263 4.91803 98.5065 7.01274 99.2836C13.5155 101.688 20.2004 97.365 23.7887 90.2248C27.377 83.0845 26.9399 73.807 25.2823 69.5569C25.2641 69.5083 25.2459 69.4597 25.2095 69.4112C25.8652 68.9011 26.5392 68.3668 27.1949 67.8568C28.4882 66.8368 29.7632 65.8896 30.8561 65.1124C30.2368 67.3711 29.7814 70.0669 29.5628 73.9528C29.2896 78.5186 30.6922 84.4445 32.5319 86.7761C33.3515 87.7961 34.3169 87.8204 34.9362 87.8204C37.0856 87.8204 38.051 85.4403 39.1257 82.6231C40.4372 79.1744 41.6211 75.1671 41.6211 75.1671C41.6211 75.1671 40.1457 85.9989 44.153 85.9989C45.6102 85.9989 47.0856 83.4731 47.7413 82.1859V82.2102C47.7413 82.2102 47.7778 82.1373 47.8506 81.9673C47.9964 81.6516 48.0874 81.4573 48.0874 81.4573V81.4087C48.6703 80.0487 49.9818 76.9643 51.9308 71.8398C54.4444 65.2339 56.867 56.9764 56.867 56.9764C56.867 56.9764 57.0856 58.9922 57.8324 62.3438C58.2696 64.311 59.1803 66.4725 59.9089 68.5611C59.326 69.654 58.9617 70.2612 58.9617 70.2612C58.9617 70.2612 58.9617 70.2612 58.98 70.2855C58.5064 71.1112 57.9964 72.0098 57.4317 72.8841C55.4463 76.0414 53.0783 79.6601 52.7505 80.7044C52.3679 81.943 52.459 82.8416 53.1876 83.5702C53.7158 84.1045 54.663 84.1774 55.6284 84.1045C57.4135 83.9345 58.6703 83.3517 59.2896 82.9874C60.255 82.5259 61.3843 81.8216 62.4408 80.7773C64.3898 78.8586 65.5738 76.1143 65.4645 72.4956C65.4098 70.5041 64.918 68.5126 64.3169 66.6425C64.4991 66.3025 64.663 65.9625 64.8452 65.6225C67.9235 59.6237 70.3097 53.042 70.3097 53.042C70.3097 53.042 70.5282 55.0578 71.275 58.4093C71.6393 60.1094 72.3862 61.9552 73.0419 63.7524C70.1457 66.8854 68.3606 70.5283 67.7231 72.9084C66.5756 77.3286 67.4681 79.3201 69.1621 79.7815C69.9271 80.0001 71.02 79.5144 71.8215 79.0529C72.8415 78.6158 74.0437 77.8629 75.1913 76.7457C77.1403 74.8271 79.0164 72.1555 78.9071 68.5368C78.8525 66.8854 78.5246 65.2582 78.0692 63.6795C80.5282 62.3195 83.6976 61.5666 87.7413 62.198C96.4117 63.5581 98.1239 70.7712 97.796 73.807C97.4681 76.8428 95.6466 78.4943 95.0455 79.0044C94.4444 79.5144 94.2441 79.6844 94.2987 80.0487C94.3716 80.583 94.663 80.5587 95.173 80.4616C95.8834 80.2915 99.7268 78.0086 99.8907 72.4227C100.164 65.2824 95.0637 57.4865 86.0474 57.5593ZM19.1621 87.6261C16.2841 91.8034 12.2769 93.382 10.5464 92.0462C8.68852 90.6133 9.41712 84.4445 12.9508 80.0244C15.1002 77.3286 17.8688 74.8271 19.7086 73.297C20.1275 72.957 20.7468 72.4713 21.4936 71.8641C21.6211 71.767 21.694 71.7184 21.694 71.7184C21.8397 71.5969 21.9854 71.4755 22.1311 71.3541C23.4244 77.6686 22.1858 83.2302 19.1621 87.6261ZM40.1093 68.634C39.1075 71.8884 37.0127 80.2187 35.7377 79.7572C34.6448 79.3687 33.9709 73.0541 35.5191 66.8125C36.3024 63.6795 37.9599 59.9394 38.9253 58.4822C40.4918 56.1507 42.2222 55.3735 42.6412 56.3207C43.1694 57.5593 40.7286 66.5939 40.1093 68.634ZM57.3953 79.6601C56.9763 79.9515 56.5756 80.1458 56.3934 80.0001C56.2659 79.903 56.5756 79.5144 56.5756 79.5144C56.5756 79.5144 58.7432 76.4057 59.5993 74.9971C60.0911 74.1713 60.674 73.1999 61.2933 72.107V72.4227C61.2933 76.1385 58.5974 78.6401 57.3953 79.6601ZM70.7286 75.6042C70.4189 75.3128 70.4736 74.3413 71.5118 71.3055C71.9126 70.1155 72.8597 68.124 74.4809 66.2053C74.663 66.9825 74.7905 67.7354 74.7723 68.4397C74.7541 73.127 72.2404 74.8756 70.7286 75.6042Z" fill="#CD6799"/>
</svg>
