<svg width="100" height="100" viewBox="0 0 100 100" fill="none" xmlns="http://www.w3.org/2000/svg">
<path d="M0 50V100H50H100V50V0H50H0V50Z" fill="#007ACC"/>
<path d="M22.1137 50.3318L22.082 54.427L28.5899 54.427H35.0979V72.9191V91.4111H39.701H44.3042V72.9191L44.3042 54.427H50.8121H57.3201V50.4111C57.3201 48.1889 57.2725 46.3318 57.209 46.2841C57.1614 46.2207 49.2407 46.1889 39.6375 46.2048L22.1614 46.2524L22.1137 50.3318Z" fill="white"/>
<path d="M80.6901 46.136C83.2298 46.7709 85.1663 47.8979 86.9441 49.7392C87.8647 50.7233 89.2298 52.5169 89.3409 52.9455C89.3726 53.0725 85.0234 55.9931 82.3885 57.628C82.2933 57.6915 81.9123 57.2788 81.4837 56.6439C80.198 54.7709 78.8488 53.9614 76.7853 53.8185C73.7536 53.6122 71.8012 55.1995 71.8171 57.8503C71.8171 58.6281 71.9282 59.0884 72.2456 59.7233C72.9123 61.1042 74.1504 61.9296 78.0393 63.6122C85.198 66.6915 88.2615 68.7233 90.1663 71.6122C92.2933 74.8344 92.7694 79.9773 91.325 83.8027C89.7377 87.9614 85.8012 90.7868 80.2615 91.7233C78.5472 92.0249 74.4837 91.9773 72.6425 91.6439C68.6266 90.9296 64.8171 88.9455 62.4679 86.3423C61.5472 85.3265 59.7536 82.6757 59.8647 82.4852C59.9123 82.4217 60.325 82.1677 60.7853 81.8979C61.2298 81.6439 62.9123 80.6757 64.4996 79.755L67.3726 78.0884L67.9758 78.9773C68.8171 80.263 70.6583 82.0249 71.7695 82.6122C74.9599 84.2947 79.3409 84.0566 81.4996 82.1201C82.4202 81.2788 82.8012 80.4058 82.8012 79.1201C82.8012 77.9614 82.6583 77.4534 82.0552 76.5804C81.2774 75.4693 79.6901 74.5328 75.1821 72.5804C70.0234 70.3582 67.8012 68.9773 65.7695 66.7868C64.5948 65.5169 63.4837 63.4852 63.0234 61.7868C62.6425 60.3741 62.5472 56.8344 62.8488 55.4058C63.9123 50.4217 67.6742 46.9455 73.1028 45.9138C74.8647 45.5804 78.9599 45.7074 80.6901 46.136Z" fill="white"/>
</svg>
