<svg width="100" height="100" viewBox="0 0 100 100" fill="none" xmlns="http://www.w3.org/2000/svg">
<path d="M50 0.0166016L100 24.9837V74.9345L50 99.9016L0 74.9345V24.9837L50 0.0166016Z" fill="white"/>
<path d="M91.0755 73.2024L51.6604 92.9062V77.5829L76.2264 65.6406L91.0755 73.2024ZM93.7736 71.0538V29.8806L79.3585 37.2258V63.7086L93.7736 71.0538ZM8.77358 73.2024L48.1887 92.8896V77.5662L23.6226 65.6406L8.77358 73.2024ZM6.07547 71.0538V29.8806L20.4906 37.2258V63.7086L6.07547 71.0538ZM7.75472 27.2157L48.1887 7.02881V21.8525L22.283 34.4276L22.0755 34.5276L7.75472 27.2157ZM92.0755 27.2157L51.6604 7.02881V21.8525L77.5472 34.4443L77.7547 34.5442L92.0755 27.2157Z" fill="#8ED6FB"/>
<path d="M48.1887 74.0851L23.9622 62.3094V39.008L48.1887 51.3499V74.0851ZM51.6604 74.0851L75.8868 62.3261V39.008L51.6604 51.3499V74.0851ZM25.5849 36.3097L49.9245 24.5007L74.2453 36.3097L49.9245 48.7016L25.5849 36.3097Z" fill="#1C78C0"/>
</svg>
